#!OML:ASF F:\VICON\USERDATA\INSTALL\rory3\rory3.ASF
:FULLY-SPECIFIED
:DEGREES
552
root 4.18022 14.4684 -15.3155 -365.283 -9.38296 357.063
lowerback 15.8846 0.909606 -4.57279
upperback -1.21862 0.580618 2.45989
thorax -10.3723 0.617887 5.15619
lowerneck -11.7747 -2.58127 0.0967686
upperneck 20.8043 -3.90164 1.15892
head 8.42957 -1.7318 -0.0466646
rclavicle 4.21796e-015 1.55301e-014
rhumerus -4.62946 -24.9146 -16.3281
rradius 26.7505
rwrist 9.3047
rhand 23.7329 7.8202
rfingers 7.12502
rthumb 47.9954 -14.3948
lclavicle 4.21796e-015 1.55301e-014
lhumerus 36.3434 -7.70879 70.683
lradius 58.2938
lwrist -3.22888
lhand -9.02995 16.2012
lfingers 7.12502
lthumb 16.9176 45.4843
rfemur 11.8508 -5.60653 6.81427
rtibia 34.942
rfoot -31.3657 -12.2914
rtoes -33.8892
lfemur -41.3609 12.7145 -11.1561
ltibia 67.5046
lfoot -14.5844 -7.4025
ltoes -6.90919
553
root 4.1588 14.4665 -15.3064 -365.452 -8.82546 357.179
lowerback 15.8847 0.848811 -4.6487
upperback -1.19898 0.486072 2.47049
thorax -10.3397 0.57607 5.23472
lowerneck -11.8804 -2.67539 -0.117992
upperneck 20.9734 -4.01708 1.26989
head 8.51398 -1.78889 0.0107054
rclavicle -1.28573e-014 1.27222e-014
rhumerus -4.85475 -24.8822 -16.0066
rradius 26.8037
rwrist 9.20177
rhand 23.6185 7.2762
rfingers 7.12502
rthumb 47.8898 -14.9879
lclavicle -1.28573e-014 1.27222e-014
lhumerus 36.3075 -7.81432 70.5559
lradius 58.1272
lwrist -4.29107
lhand -9.91156 15.8716
lfingers 7.12502
lthumb 16.0688 45.2253
rfemur 12.3663 -5.93298 6.76271
rtibia 34.7932
rfoot -31.1846 -13.3012
rtoes -35.2568
lfemur -41.2291 12.3625 -11.2958
ltibia 67.3789
lfoot -14.5458 -7.53835
ltoes -7.28414
554
root 4.13554 14.462 -15.3114 -365.452 -8.60237 356.88
lowerback 15.957 0.817848 -4.44053
upperback -1.30478 0.496103 2.60566
thorax -10.4999 0.581374 5.26495
lowerneck -11.3732 -2.68523 -0.106652
upperneck 20.7234 -3.99651 1.14575
head 8.33316 -1.79746 -0.0203878
rclavicle -8.46388e-015 -2.14687e-014
rhumerus -5.1901 -24.063 -15.5888
rradius 26.9304
rwrist 8.72875
rhand 23.841 7.06484
rfingers 7.12502
rthumb 48.095 -15.1035
lclavicle -8.46388e-015 -2.14687e-014
lhumerus 36.0273 -7.67422 70.673
lradius 58.049
lwrist -5.27428
lhand -9.56279 15.685
lfingers 7.12502
lthumb 16.4046 45.0113
rfemur 12.1926 -5.93003 7.39531
rtibia 35.0555
rfoot -30.7501 -14.9207
rtoes -37.7432
lfemur -41.4078 12.3029 -10.8904
ltibia 67.5273
lfoot -14.5042 -7.67991
ltoes -7.5833
555
root 4.12572 14.4483 -15.3001 -365.45 -8.36465 357.073
lowerback 15.6654 0.826506 -4.38955
upperback -1.27184 0.517177 2.49458
thorax -10.2949 0.577409 5.10267
lowerneck -11.5647 -2.61695 0.140378
upperneck 20.8495 -3.93347 1.04584
head 8.40298 -1.75531 -0.0920076
rclavicle -8.53532e-015 -1.09829e-014
rhumerus -5.43692 -24.0981 -15.4208
rradius 26.94
rwrist 8.82714
rhand 23.9163 8.00827
rfingers 7.12502
rthumb 48.1644 -14.1275
lclavicle -8.53532e-015 -1.09829e-014
lhumerus 35.9951 -7.74915 70.4571
lradius 58.219
lwrist -5.27619
lhand -9.30055 16.013
lfingers 7.12502
lthumb 16.6571 45.3183
rfemur 12.6119 -5.61895 7.20207
rtibia 34.9718
rfoot -32.5036 -11.5051
rtoes -29.2481
lfemur -41.5245 12.161 -11.1447
ltibia 67.6671
lfoot -14.6455 -7.70243
ltoes -7.96394
556
root 4.09737 14.4438 -15.2999 -365.593 -8.03095 357.072
lowerback 15.7786 0.84085 -4.49384
upperback -1.23204 0.519672 2.56815
thorax -10.3188 0.586976 5.24448
lowerneck -11.1776 -2.66157 -0.260164
upperneck 20.621 -3.95394 1.26721
head 8.26856 -1.77875 0.0539134
rclavicle 9.42674e-016 2.13694e-014
rhumerus -5.60732 -23.6915 -15.0037
rradius 27.0213
rwrist 8.62945
rhand 24.0421 8.06376
rfingers 7.12502
rthumb 48.2803 -14.0172
lclavicle 9.42674e-016 2.13694e-014
lhumerus 36.0319 -7.80975 70.3638
lradius 58.0474
lwrist -5.64744
lhand -9.28639 16.0906
lfingers 7.12502
lthumb 16.6707 45.3948
rfemur 12.8776 -5.68376 7.40741
rtibia 34.9737
rfoot -32.6144 -12.0974
rtoes -29.5598
lfemur -41.4537 12.0428 -11.0629
ltibia 67.6465
lfoot -14.5673 -7.88583
ltoes -8.11196
557
root 4.07521 14.437 -15.303 -365.659 -7.80905 357.203
lowerback 15.8903 0.932003 -4.5737
upperback -1.1798 0.614895 2.50174
thorax -10.3373 0.633918 5.19406
lowerneck -11.8106 -2.73142 -0.302862
upperneck 20.9872 -4.07683 1.37662
head 8.51271 -1.81968 0.071836
rclavicle -1.21259e-014 5.31749e-015
rhumerus -5.99415 -23.6253 -14.7123
rradius 27.1376
rwrist 8.47602
rhand 23.9056 7.91219
rfingers 7.12502
rthumb 48.1545 -14.2282
lclavicle -1.21259e-014 5.31749e-015
lhumerus 36.2233 -7.83406 70.3467
lradius 57.9582
lwrist -6.52546
lhand -9.78294 15.524
lfingers 7.12502
lthumb 16.1927 44.8677
rfemur 13.0754 -5.49922 7.47126
rtibia 35.0221
rfoot -33.1059 -11.5248
rtoes -27.5347
lfemur -41.466 11.9463 -11.1704
ltibia 67.5838
lfoot -14.4536 -8.0224
ltoes -8.45266
558
root 4.06805 14.4369 -15.2755 -365.558 -7.75307 357.267
lowerback 15.3714 0.910926 -4.39869
upperback -1.16494 0.636724 2.46603
thorax -10.0209 0.623384 5.04233
lowerneck -11.6878 -2.67029 -0.268443
upperneck 21.0362 -3.97497 1.26654
head 8.50247 -1.78052 0.0419019
rclavicle -6.70898e-015 -1.40143e-014
rhumerus -6.03137 -23.8669 -14.6128
rradius 27.1367
rwrist 8.7639
rhand 24.0401 8.08761
rfingers 7.12502
rthumb 48.2785 -13.9942
lclavicle -6.70898e-015 -1.40143e-014
lhumerus 36.1284 -7.62848 70.3705
lradius 57.9609
lwrist -7.2291
lhand -9.36912 15.5343
lfingers 7.12502
lthumb 16.5911 44.8451
rfemur 12.9025 -5.64598 7.42755
rtibia 35.0679
rfoot -32.4152 -13.3649
rtoes -31.9967
lfemur -41.5413 11.9242 -11.252
ltibia 67.6466
lfoot -14.6082 -7.99174
ltoes -8.52142
559
root 4.045 14.4219 -15.2851 -365.692 -7.25405 357.163
lowerback 15.815 0.881656 -4.29902
upperback -1.35747 0.603678 2.50268
thorax -10.4863 0.621602 5.04147
lowerneck -11.0857 -2.69655 -0.300635
upperneck 20.8777 -3.98678 1.21078
head 8.33795 -1.80048 0.0380531
rclavicle 5.71506e-016 -9.93923e-017
rhumerus -6.47118 -23.1968 -14.1793
rradius 27.3019
rwrist 8.16738
rhand 24.2893 8.03949
rfingers 7.12502
rthumb 48.5079 -13.9328
lclavicle 5.71506e-016 -9.93923e-017
lhumerus 35.8897 -7.81468 70.3599
lradius 58.0499
lwrist -7.44132
lhand -9.02208 15.6604
lfingers 7.12502
lthumb 16.9252 44.9429
rfemur 13.3819 -5.75191 7.69005
rtibia 35.057
rfoot -33.1676 -12.4406
rtoes -28.8647
lfemur -41.6559 11.6198 -11.1009
ltibia 67.832
lfoot -14.5535 -8.23795
ltoes -8.35136
560
root 4.02107 14.4183 -15.2956 -365.715 -6.88272 357.154
lowerback 15.8382 0.902806 -4.26446
upperback -1.21688 0.632782 2.45338
thorax -10.3448 0.624317 4.95786
lowerneck -11.5382 -2.77986 -0.2443
upperneck 20.9208 -4.14914 1.36595
head 8.43944 -1.85234 0.0557651
rclavicle -1.07918e-014 1.53561e-014
rhumerus -6.78319 -23.1958 -13.9444
rradius 27.3493
rwrist 8.07195
rhand 24.056 7.67369
rfingers 7.12502
rthumb 48.2931 -14.4012
lclavicle -1.07918e-014 1.53561e-014
lhumerus 36.3977 -7.84737 70.2998
lradius 57.7435
lwrist -8.60843
lhand -9.21885 15.2845
lfingers 7.12502
lthumb 16.7358 44.5832
rfemur 13.5056 -5.71713 7.93901
rtibia 35.1685
rfoot -33.6056 -11.9682
rtoes -26.583
lfemur -41.8214 11.3843 -11.0743
ltibia 67.8059
lfoot -14.4147 -8.39646
ltoes -8.48078
